<svg width="30" height="28" viewBox="0 0 30 28" fill="none" xmlns="http://www.w3.org/2000/svg">
<path d="M23.5 8.30407e-08C22.393 -0.000212479 21.3247 0.407658 20.4995 1.14561C19.6742 1.88356 19.15 2.89981 19.027 4H17V6H23V4H21.05C21.1704 3.4061 21.5024 2.87614 21.9843 2.50869C22.4661 2.14125 23.0651 1.96134 23.6696 2.00242C24.2742 2.0435 24.8433 2.30277 25.2711 2.73202C25.6988 3.16127 25.9561 3.73127 25.995 4.336L26 4.5V14H0V16H2V21C1.99985 21.9731 2.2836 22.9251 2.81647 23.7393C3.34935 24.5536 4.10819 25.1946 5 25.584V28H7V26H23V28H25V25.584C25.8552 25.2106 26.5889 24.6055 27.1181 23.8369C27.6474 23.0684 27.9511 22.1671 27.995 21.235L28 21V16H30V14H28V4.5C28 3.30653 27.5259 2.16193 26.682 1.31802C25.8381 0.474106 24.6935 8.30407e-08 23.5 8.30407e-08ZM4.001 16H26.001L26 21C26.0001 21.7351 25.7303 22.4447 25.2418 22.994C24.7533 23.5434 24.0801 23.8942 23.35 23.98L23.176 23.995L23 24H7C6.23479 24 5.49849 23.7077 4.94174 23.1827C4.38499 22.6578 4.04989 21.9399 4.005 21.176L4 21L4.001 16Z" fill="#B8B8B8"/>
</svg>
