<svg width="33" height="32" viewBox="0 0 33 32" fill="none" xmlns="http://www.w3.org/2000/svg">
<g clip-path="url(#clip0_0_46)">
<path d="M16.4999 20.3332C18.5249 20.3332 20.1666 21.9748 20.1666 23.9999C20.1666 26.0249 18.5249 27.6666 16.4999 27.6666C14.4749 27.6666 12.8332 26.0249 12.8332 23.9999C12.8332 21.9748 14.4749 20.3332 16.4999 20.3332ZM16.4999 22.3332C15.5794 22.3332 14.8332 23.0794 14.8332 23.9999C14.8332 24.9204 15.5794 25.6666 16.4999 25.6666C17.4204 25.6666 18.1666 24.9204 18.1666 23.9999C18.1666 23.0794 17.4204 22.3332 16.4999 22.3332ZM16.5 15C20.0168 15 23.0625 17.0171 24.5432 19.9575L23.0289 21.4702C22.0147 18.8545 19.4739 17 16.5 17C13.5261 17 10.9853 18.8545 9.97109 21.4702L8.45727 19.9565C9.93819 17.0167 12.9836 15 16.5 15ZM16.5001 9.66679C21.4806 9.66679 25.8677 12.207 28.4367 16.0625L26.9896 17.5099C24.8149 14.0026 20.9303 11.6668 16.5001 11.6668C12.0699 11.6668 8.18528 14.0026 6.01061 17.5099L4.56351 16.0625C7.13246 12.207 11.5196 9.66679 16.5001 9.66679ZM16.4999 4.33319C22.951 4.33319 28.6766 7.43923 32.2628 12.2374L30.8323 13.6684C27.6237 9.22496 22.3995 6.33319 16.4999 6.33319C10.6008 6.33319 5.37692 9.22453 2.16821 13.6674L0.737732 12.2364C4.32403 7.4388 10.0493 4.33319 16.4999 4.33319Z" fill="#B8B8B8"/>
</g>
<defs>
<clipPath id="clip0_0_46">
<rect width="32" height="32" fill="white" transform="translate(0.5)"/>
</clipPath>
</defs>
</svg>
